#!OML:ASF H:\Terrain\Patient Classification 1\Animal1\Tuesday\Animal1.ASF
:FULLY-SPECIFIED
:DEGREES
2069
root 2.25073 14.949 -13.8246 -341.851 -14.7732 7.97067
lowerback 32.2401 -0.417666 11.9661
upperback 12.0583 3.06094 5.10488
thorax -2.83822 1.58817 -1.84361
lowerneck -12.5097 -4.95563 -8.88242
upperneck -16.7185 -5.05522 8.75952
head -2.52588 -2.35108 4.08642
rclavicle 0 -3.65764e-014
rhumerus 35.4412 23.2223 -29.593
rradius 20.17
rwrist -26.568
rhand -22.2473 19.7125
rfingers 7.12502
rthumb 4.16994 -10.2264
lclavicle 0 -3.65764e-014
lhumerus 66.7762 -56.8298 -5.09819
lradius 76.7854
lwrist -8.94121
lhand 4.39986 42.9097
lfingers 7.12502
lthumb 29.7974 70.5334
rfemur -60.5909 -9.52222 9.31367
rtibia 59.5024
rfoot -9.32891 -23.0779
rtoes -9.91907
lfemur -68.2495 12.0561 -34.3859
ltibia 78.5317
lfoot -0.82364 -9.73896
ltoes 16.5949
2070
root 2.14566 14.9026 -13.8134 -341.482 -14.3788 8.25199
lowerback 32.7871 -0.442241 11.684
upperback 12.215 2.99389 4.73898
thorax -2.88398 1.56481 -2.06385
lowerneck -13.3281 -4.74342 -8.23025
upperneck -17.0246 -4.76044 8.67109
head -2.54042 -2.22305 3.95313
rclavicle -7.63333e-014 -3.18055e-014
rhumerus 36.5129 21.021 -30.4484
rradius 18.6374
rwrist -23.6557
rhand -21.7241 20.5532
rfingers 7.12502
rthumb 4.6752 -9.37522
lclavicle -7.63333e-014 -3.18055e-014
lhumerus 65.6589 -55.5542 -4.33781
lradius 77.377
lwrist -9.56057
lhand 4.02518 44.2214
lfingers 7.12502
lthumb 29.4397 71.9087
rfemur -61.449 -10.0926 9.65069
rtibia 60.5568
rfoot -9.20698 -23.1246
rtoes -13.034
lfemur -69.5728 11.9615 -35.2374
ltibia 77.3811
lfoot -2.23883 -9.80548
ltoes 9.7024
2071
root 2.04453 14.8613 -13.8028 -341.118 -14.0294 8.39084
lowerback 33.4354 -0.459972 11.4798
upperback 12.3278 2.9735 4.38834
thorax -3.00111 1.55969 -2.32248
lowerneck -13.6521 -4.55433 -7.77167
upperneck -17.7654 -4.4706 8.89053
head -2.74053 -2.10704 3.96796
rclavicle -3.18055e-015 -5.88403e-014
rhumerus 37.3469 18.5643 -31.769
rradius 17.3599
rwrist -20.6522
rhand -21.4259 20.9882
rfingers 7.12502
rthumb 4.96308 -8.93366
lclavicle -3.18055e-015 -5.88403e-014
lhumerus 65.1558 -54.3658 -4.20105
lradius 77.8361
lwrist -9.38887
lhand 8.72524 44.5438
lfingers 7.12502
lthumb 33.9163 71.3461
rfemur -62.1832 -10.4701 10.0891
rtibia 61.4774
rfoot -10.32 -23.26
rtoes -11.1758
lfemur -70.8472 11.9029 -35.9058
ltibia 76.1797
lfoot -3.35497 -9.5366
ltoes 8.69
2072
root 1.95381 14.8177 -13.7842 -340.682 -13.7283 8.42466
lowerback 33.971 -0.386584 11.6853
upperback 12.4927 3.14505 3.79391
thorax -2.94808 1.67915 -3.09863
lowerneck -13.9447 -4.48748 -6.48827
upperneck -18.7064 -4.4516 8.91824
head -3.01189 -2.18254 3.78289
rclavicle 5.725e-014 1.59028e-015
rhumerus 37.6433 15.6436 -33.4201
rradius 16.1948
rwrist -17.7115
rhand -21.4664 20.591
rfingers 7.12502
rthumb 4.92398 -9.33174
lclavicle 5.725e-014 1.59028e-015
lhumerus 66.2442 -52.938 -5.55688
lradius 78.0289
lwrist -8.89621
lhand 22.5635 40.1753
lfingers 7.12502
lthumb 46.9152 62.8788
rfemur -62.9289 -10.8772 10.6603
rtibia 62.3168
rfoot -11.8486 -23.398
rtoes -8.48313
lfemur -72.0501 11.7953 -36.4096
ltibia 74.8429
lfoot -4.09197 -9.10927
ltoes 9.43523
2073
root 1.86739 14.761 -13.7631 -340.036 -13.3905 8.27119
lowerback 34.3732 -0.0107004 12.2659
upperback 12.7487 3.75547 2.98986
thorax -2.63845 2.05008 -4.41367
lowerneck -15.8466 -4.52575 -3.22721
upperneck -18.3998 -4.96647 7.82676
head -3.10919 -2.5722 3.08868
rclavicle -2.54444e-014 -1.59028e-015
rhumerus 37.0697 11.197 -35.9217
rradius 15.0499
rwrist -14.1526
rhand -21.8446 20.0372
rfingers 7.12502
rthumb 4.55885 -9.89374
lclavicle -2.54444e-014 -1.59028e-015
lhumerus 69.1726 -50.8838 -8.51824
lradius 78.231
lwrist -8.53797
lhand 9.25541 41.672
lfingers 7.12502
lthumb 34.4198 68.3616
rfemur -63.8778 -11.1933 11.439
rtibia 63.097
rfoot -12.5929 -23.7344
rtoes -7.56008
lfemur -73.4105 11.5535 -36.6058
ltibia 73.304
lfoot -4.49912 -8.51111
ltoes 9.491
2074
root 1.78017 14.7038 -13.7481 -339.185 -12.9106 7.74518
lowerback 34.6652 -0.515179 12.2784
upperback 13.0183 3.15198 2.90166
thorax -2.39132 1.78324 -4.26879
lowerneck -16.5494 -4.10815 -3.74915
upperneck -19.2167 -4.20559 8.33327
head -2.90086 -2.18744 3.12403
rclavicle -6.36111e-015 3.65764e-014
rhumerus 39.8759 8.92991 -37.3388
rradius 13.9508
rwrist -10.8627
rhand -21.6965 20.312
rfingers 7.12502
rthumb 4.70178 -9.61586
lclavicle -6.36111e-015 3.65764e-014
lhumerus 66.218 -49.658 -6.07308
lradius 78.0122
lwrist -8.79816
lhand -3.38582 45.7687
lfingers 7.12502
lthumb 22.3436 74.4967
rfemur -64.9346 -11.256 12.5818
rtibia 63.8248
rfoot -13.079 -24.0649
rtoes -6.63822
lfemur -74.9146 11.2304 -36.2467
ltibia 71.5906
lfoot -4.60215 -7.56846
ltoes 11.7507
2075
root 1.69713 14.6604 -13.7302 -338.29 -12.4227 7.18397
lowerback 34.9869 -0.834401 12.5972
upperback 13.037 2.89213 2.64688
thorax -2.47987 1.6746 -4.61811
lowerneck -16.4613 -3.81363 -3.40567
upperneck -20.0638 -3.79673 8.43323
head -3.20181 -2.02705 3.13232
rclavicle -5.40694e-014 -6.83819e-014
rhumerus 41.3421 6.17745 -39.9977
rradius 13.1338
rwrist -6.95917
rhand -21.488 21.2928
rfingers 7.12502
rthumb 4.90313 -8.63051
lclavicle -5.40694e-014 -6.83819e-014
lhumerus 65.0986 -48.6426 -5.35505
lradius 77.7053
lwrist -9.22795
lhand -2.00299 44.3104
lfingers 7.12502
lthumb 23.6705 72.8731
rfemur -65.9589 -11.2806 13.7446
rtibia 64.4761
rfoot -13.5375 -24.2835
rtoes -6.69154
lfemur -76.2824 10.863 -35.7508
ltibia 69.6694
lfoot -4.77969 -6.43821
ltoes 15.3178
2076
root 1.62088 14.6235 -13.7012 -337.628 -11.98 6.67481
lowerback 35.3922 -1.24383 12.7773
upperback 13.2121 2.48408 2.50427
thorax -2.46465 1.49648 -4.7274
lowerneck -16.2815 -3.5343 -3.6158
upperneck -20.8867 -3.31273 8.70132
head -3.49647 -1.79755 3.28779
rclavicle -2.8625e-014 1.66979e-014
rhumerus 43.1779 4.35138 -41.9424
rradius 12.7182
rwrist -4.42522
rhand -21.5758 21.6063
rfingers 7.12502
rthumb 4.8184 -8.31888
lclavicle -2.8625e-014 1.66979e-014
lhumerus 63.3585 -47.4011 -3.8616
lradius 77.1699
lwrist -9.88132
lhand -6.77363 45.396
lfingers 7.12502
lthumb 19.0885 74.4793
rfemur -66.6493 -11.3479 14.792
rtibia 65.0506
rfoot -12.9343 -24.8728
rtoes -9.96365
lfemur -77.1927 10.5722 -35.2916
ltibia 67.4981
lfoot -5.27946 -5.48622
ltoes 16.5082
2077
root 1.55264 14.6009 -13.6655 -337.101 -11.7396 6.37787
lowerback 35.7721 -1.49258 12.9674
upperback 13.5252 2.23003 1.94897
thorax -2.25559 1.43143 -5.32327
lowerneck -16.8295 -3.14143 -2.37492
upperneck -21.2237 -2.95585 8.35403
head -3.5818 -1.69741 2.98116
rclavicle -4.13472e-014 5.80451e-014
rhumerus 44.4861 1.96943 -44.4919
rradius 12.6835
rwrist -2.59896
rhand -21.757 21.3045
rfingers 7.12502
rthumb 4.64341 -8.62463
lclavicle -4.13472e-014 5.80451e-014
lhumerus 62.9363 -45.9477 -3.72827
lradius 76.4978
lwrist -10.0791
lhand 2.72755 41.7629
lfingers 7.12502
lthumb 28.2002 69.6614
rfemur -67.2045 -11.4929 15.5649
rtibia 65.5402
rfoot -12.2161 -25.2543
rtoes -12.4179
lfemur -77.7105 10.2954 -35.0507
ltibia 65.1427
lfoot -6.12071 -4.23138
ltoes 11.5631
2078
root 1.49057 14.5955 -13.628 -336.453 -11.5694 6.28898
lowerback 35.8665 -1.58441 12.9127
upperback 13.6773 2.07949 1.60985
thorax -2.13982 1.38701 -5.606
lowerneck -16.8815 -3.09346 -2.3713
upperneck -21.4877 -2.84505 8.55377
head -3.65707 -1.65264 3.05206
rclavicle 7.63333e-014 3.10104e-014
rhumerus 45.6203 0.112053 -46.4752
rradius 12.5546
rwrist -1.34302
rhand -22.8988 21.7359
rfingers 7.12502
rthumb 3.54081 -8.21446
lclavicle 7.63333e-014 3.10104e-014
lhumerus 62.6592 -44.8729 -2.99728
lradius 75.6553
lwrist -10.7112
lhand 4.38314 41.4483
lfingers 7.12502
lthumb 29.7814 69.0749
rfemur -67.8673 -11.6789 16.0789
rtibia 65.9527
rfoot -12.4861 -25.2001
rtoes -11.9593
lfemur -78.1594 9.84577 -34.8435
ltibia 62.7103
lfoot -6.67876 -2.87964
ltoes 10.2841
2079
root 1.42959 14.5751 -13.5897 -335.7 -11.2095 6.04064
lowerback 35.855 -1.82704 12.9015
upperback 13.9213 1.75034 1.46031
thorax -1.91641 1.2588 -5.65013
lowerneck -17.2763 -3.02216 -3.01889
upperneck -21.5835 -2.57919 9.0305
head -3.62061 -1.47743 3.31834
rclavicle -4.45278e-014 -1.19271e-014
rhumerus 47.2015 -1.66798 -48.8224
rradius 12.6215
rwrist 0.186612
rhand -24.2942 23.0897
rfingers 7.12502
rthumb 2.19319 -6.87879
lclavicle -4.45278e-014 -1.19271e-014
lhumerus 61.8612 -43.4244 -1.74702
lradius 74.6883
lwrist -11.6088
lhand 2.04185 42.4996
lfingers 7.12502
lthumb 27.5446 70.5044
rfemur -68.5981 -11.7802 16.7524
rtibia 66.3778
rfoot -12.1333 -25.4912
rtoes -13.8413
lfemur -78.7499 9.4305 -34.4292
ltibia 60.2386
lfoot -7.06395 -1.88407
ltoes 11.0022
2080
root 1.36969 14.5409 -13.5552 -334.986 -10.7508 5.75234
lowerback 36.1616 -2.03154 13.1572
upperback 13.8958 1.61578 1.12711
thorax -2.04737 1.21307 -6.0891
lowerneck -17.2722 -2.73272 -2.28139
upperneck -21.6724 -2.31231 8.73371
head -3.68603 -1.38935 3.10843
rclavicle 9.54166e-015 2.22639e-014
rhumerus 47.8838 -3.51927 -51.5248
rradius 13.0787
rwrist 1.20648
rhand -24.287 23.0976
rfingers 7.12502
rthumb 2.20014 -6.87083
lclavicle 9.54166e-015 2.22639e-014
lhumerus 62.2124 -42.2819 -1.75949
lradius 73.5699
lwrist -11.6792
lhand -1.70643 43.3949
lfingers 7.12502
lthumb 23.9549 71.9205
rfemur -69.3595 -11.9001 17.5041
rtibia 66.8317
rfoot -11.8099 -25.7996
rtoes -15.8181
lfemur -79.3168 9.05195 -33.993
ltibia 57.6813
lfoot -7.30352 -0.847362
ltoes 8.12653
2081
root 1.31435 14.5189 -13.5208 -334.432 -10.2914 5.5761
lowerback 36.4881 -2.37367 13.1854
upperback 14.0111 1.23887 0.844567
thorax -2.08837 1.05134 -6.27891
lowerneck -17.2715 -2.43101 -1.90724
upperneck -21.9103 -1.96558 8.49138
head -3.7923 -1.24042 2.98192
rclavicle 2.22639e-014 9.54166e-015
rhumerus 49.1109 -4.40238 -53.5773
rradius 13.2927
rwrist 1.22128
rhand -24.8755 22.8134
rfingers 7.12502
rthumb 1.63186 -7.16007
lclavicle 2.22639e-014 9.54166e-015
lhumerus 61.8094 -40.9791 -0.943688
lradius 72.1807
lwrist -12.2134
lhand -4.50793 44.0753
lfingers 7.12502
lthumb 21.2661 72.9286
rfemur -69.9752 -12.09 18.0907
rtibia 67.2838
rfoot -12.8394 -25.6513
rtoes -14.994
lfemur -79.5091 8.55058 -33.464
ltibia 54.9942
lfoot -7.33917 0.448784
ltoes 7.41325
2082
root 1.26602 14.5092 -13.4745 -333.95 -9.94034 5.31121
lowerback 36.6935 -2.71863 13.0459
upperback 14.3137 0.779885 0.753089
thorax -1.90697 0.85332 -6.14998
lowerneck -17.3072 -2.24196 -2.32725
upperneck -22.2688 -1.61561 8.55467
head -3.91128 -1.04111 3.08898
rclavicle -5.08889e-014 -7.15625e-015
rhumerus 50.8606 -4.70225 -55.2291
rradius 13.4217
rwrist 0.666457
rhand -26.4302 24.4351
rfingers 7.12502
rthumb 0.130221 -5.54463
lclavicle -5.08889e-014 -7.15625e-015
lhumerus 60.9037 -39.4603 0.611316
lradius 70.7966
lwrist -13.5677
lhand -2.3919 43.7443
lfingers 7.12502
lthumb 23.2975 72.3547
rfemur -70.3545 -12.1131 18.6381
rtibia 67.6524
rfoot -13.8708 -25.9558
rtoes -15.087
lfemur -79.4426 8.17606 -32.7701
ltibia 52.2161
lfoot -7.32974 1.84141
ltoes 6.30209
